<svg id="visual" viewBox="0 0 960 540" width="960" height="540" xmlns="http://www.w3.org/2000/svg" xmlns:xlink="http://www.w3.org/1999/xlink" version="1.1"><rect x="0" y="0" width="960" height="540" fill="#24272B"></rect><path d="M0 378L22.8 368.3C45.7 358.7 91.3 339.3 137 334.5C182.7 329.7 228.3 339.3 274 351.8C319.7 364.3 365.3 379.7 411.2 375.8C457 372 503 349 548.8 344.5C594.7 340 640.3 354 686 356.3C731.7 358.7 777.3 349.3 823 344.8C868.7 340.3 914.3 340.7 937.2 340.8L960 341L960 541L937.2 541C914.3 541 868.7 541 823 541C777.3 541 731.7 541 686 541C640.3 541 594.7 541 548.8 541C503 541 457 541 411.2 541C365.3 541 319.7 541 274 541C228.3 541 182.7 541 137 541C91.3 541 45.7 541 22.8 541L0 541Z" fill="#3e78b2"></path><path d="M0 403L22.8 404.5C45.7 406 91.3 409 137 404.2C182.7 399.3 228.3 386.7 274 380.7C319.7 374.7 365.3 375.3 411.2 383.3C457 391.3 503 406.7 548.8 409C594.7 411.3 640.3 400.7 686 389.8C731.7 379 777.3 368 823 362.5C868.7 357 914.3 357 937.2 357L960 357L960 541L937.2 541C914.3 541 868.7 541 823 541C777.3 541 731.7 541 686 541C640.3 541 594.7 541 548.8 541C503 541 457 541 411.2 541C365.3 541 319.7 541 274 541C228.3 541 182.7 541 137 541C91.3 541 45.7 541 22.8 541L0 541Z" fill="#2d6db1"></path><path d="M0 459L22.8 451.7C45.7 444.3 91.3 429.7 137 426C182.7 422.3 228.3 429.7 274 433C319.7 436.3 365.3 435.7 411.2 436.8C457 438 503 441 548.8 435.7C594.7 430.3 640.3 416.7 686 412.8C731.7 409 777.3 415 823 422C868.7 429 914.3 437 937.2 441L960 445L960 541L937.2 541C914.3 541 868.7 541 823 541C777.3 541 731.7 541 686 541C640.3 541 594.7 541 548.8 541C503 541 457 541 411.2 541C365.3 541 319.7 541 274 541C228.3 541 182.7 541 137 541C91.3 541 45.7 541 22.8 541L0 541Z" fill="#1c62af"></path><path d="M0 468L22.8 465.5C45.7 463 91.3 458 137 460.3C182.7 462.7 228.3 472.3 274 469.3C319.7 466.3 365.3 450.7 411.2 450.3C457 450 503 465 548.8 468.3C594.7 471.7 640.3 463.3 686 460.3C731.7 457.3 777.3 459.7 823 458.5C868.7 457.3 914.3 452.7 937.2 450.3L960 448L960 541L937.2 541C914.3 541 868.7 541 823 541C777.3 541 731.7 541 686 541C640.3 541 594.7 541 548.8 541C503 541 457 541 411.2 541C365.3 541 319.7 541 274 541C228.3 541 182.7 541 137 541C91.3 541 45.7 541 22.8 541L0 541Z" fill="#0b57ac"></path><path d="M0 505L22.8 506.5C45.7 508 91.3 511 137 508C182.7 505 228.3 496 274 495.3C319.7 494.7 365.3 502.3 411.2 505.5C457 508.7 503 507.3 548.8 505.8C594.7 504.3 640.3 502.7 686 501.5C731.7 500.3 777.3 499.7 823 495.8C868.7 492 914.3 485 937.2 481.5L960 478L960 541L937.2 541C914.3 541 868.7 541 823 541C777.3 541 731.7 541 686 541C640.3 541 594.7 541 548.8 541C503 541 457 541 411.2 541C365.3 541 319.7 541 274 541C228.3 541 182.7 541 137 541C91.3 541 45.7 541 22.8 541L0 541Z" fill="#004ba8"></path></svg>